<?xml version="1.0" encoding="utf-8"?>
<!-- Generator: Adobe Illustrator 23.0.1, SVG Export Plug-In . SVG Version: 6.00 Build 0)  -->
<svg version="1.1" id="Layer_6_xA0_Image_1_" xmlns="http://www.w3.org/2000/svg" xmlns:xlink="http://www.w3.org/1999/xlink"
	 x="0px" y="0px" viewBox="0 0 1200 1200" style="enable-background:new 0 0 1200 1200;" xml:space="preserve">
<style type="text/css">
	.st0{fill:#999999;stroke:#000000;stroke-width:3;stroke-miterlimit:10;}
	.st1{fill:#333333;stroke:#000000;stroke-width:2;stroke-miterlimit:10;}
	.st2{fill:#999999;stroke:#000000;stroke-width:2;stroke-miterlimit:10;}
	.st3{fill:#333333;stroke:#000000;stroke-width:3;stroke-miterlimit:10;}
</style>
<g>
	<g>
		<path d="M824.05,911.87c-245.33,0-490.67,0-736,0c-3.46-1.09-6.91-2.24-10.39-3.26c-28.61-8.4-48.37-37-48.36-66.02
			c0.06-160.65,0.09-321.31-0.07-481.96c-0.01-14.44,2.67-27.83,10.29-40.14c12.56-20.3,30.82-32.13,54.61-32.16
			c240.99-0.29,481.98-0.19,722.97-0.14c16.61,0,30.9,6.41,42.92,17.64c15.49,14.48,22.29,32.7,22.26,53.72
			c-0.06,31.43-0.03,62.87-0.06,94.3c0,4.13,0.25,8.76,4.66,9.96c2.78,0.76,6.74-0.48,9.42-2.08c32.64-19.37,65.11-39.03,97.7-58.5
			c39.9-23.84,79.92-47.46,119.75-71.41c12.85-7.73,25.69-8.13,38.43-0.88c12.46,7.09,18.62,18.3,18.62,32.77
			c-0.01,154.99,0,309.98-0.05,464.97c0,3.27-0.28,6.64-1.07,9.8c-6.63,26.25-36.35,40.42-59.64,27.08
			c-19.34-11.08-38.38-22.71-57.51-34.15c-26.01-15.54-51.98-31.14-77.98-46.71c-25.51-15.28-50.97-30.63-76.59-45.72
			c-3.48-2.05-8.3-4.56-11.57-3.63c-5.28,1.5-4.13,7.59-4.14,12.13c-0.06,27.5,0.08,55-0.1,82.5c-0.06,8.86-0.14,17.83-1.48,26.55
			c-3.87,25.33-24.46,47.14-49.27,53.12C828.9,910.26,826.49,911.13,824.05,911.87z M456.03,891.15
			c119.99,0,239.97-0.04,359.96,0.06c15.27,0.01,27-6.57,36.12-18.16c6.86-8.71,9.91-19,9.97-30.03
			c0.13-24.83,0.02-49.66,0.05-74.49c0.01-10-0.31-20.02,0.27-29.98c1.12-19.08,23.19-30.67,39.39-20.98
			c30.61,18.31,61.22,36.6,91.81,54.95c41.26,24.74,82.49,49.53,123.74,74.29c7.43,4.46,15.13,4.98,22.59,0.4
			c8.12-4.97,11.07-12.84,11.07-22.03c0.04-59.15,0.11-118.31,0.11-177.46c0-66.32-0.07-132.65-0.11-198.97
			c-0.01-27.49-0.14-54.98,0.04-82.48c0.1-15.95-13.95-25.44-27.88-16.83c-27.64,17.1-55.72,33.49-83.62,50.16
			c-23.08,13.79-46.2,27.51-69.25,41.36c-20.57,12.36-40.98,24.97-61.64,37.17c-4.75,2.81-10.08,5.6-15.42,6.28
			c-17.62,2.25-31.04-10.32-31.09-28.43c-0.09-32.32,0.05-64.65-0.11-96.97c-0.03-5.09-0.61-10.3-1.85-15.22
			c-4.95-19.71-24.13-35.33-44.92-35.31c-240.14,0.24-480.28,0.13-720.42,0.31c-5.77,0-12.01,1.32-17.21,3.78
			c-19.73,9.33-28.48,25.93-28.49,47.24c-0.09,131.82-0.09,263.63-0.03,395.45c0.02,30.64,0.07,61.28,0.76,91.91
			c0.52,23.15,22.68,44.01,45.69,44.01C215.73,891.15,335.88,891.15,456.03,891.15z"/>
		<path d="M521.77,610.8c0,2.71,0,4.84,0,6.97c0,76.45,0,152.89,0,229.34c0,7.02-3.17,11.21-8.79,11.7
			c-5.94,0.52-10.36-3.12-10.89-9.06c-0.16-1.82-0.1-3.66-0.1-5.5c0.04-60.82,0.12-121.65,0.12-182.47
			c0-71.15-0.09-142.3-0.12-213.45c-0.02-31.15-0.02-62.3,0.02-93.44c0.01-7.77,3.69-11.96,10.17-11.91
			c4.98,0.04,9.15,3.89,9.58,8.92c0.11,1.32,0.03,2.66,0.03,4c0,75.99,0,151.98,0,227.97c0,2.14,0,4.28,0,7.08c2.32,0,4.25,0,6.19,0
			c70.82,0,141.64,0,212.46,0c29.66,0,59.31-0.04,88.97,0.07c2.89,0.01,6.03,0.4,8.6,1.59c4.58,2.11,5.65,6.56,4.58,11.02
			c-1.06,4.39-4.38,7.04-9.07,7.09c-12.33,0.12-24.66,0.08-36.99,0.08c-22.99,0.01-45.98,0-68.97,0c-51.49,0-102.99,0-154.48,0
			C556.25,610.8,539.44,610.8,521.77,610.8z"/>
		<path d="M276.74,426.81c54.71-0.27,100.53,44.65,98.92,101.74c-1.47,52.27-43.96,97-101.16,95.9
			c-52.7-1.01-96.36-44.02-96.53-98.69C177.8,470.59,223.34,426.35,276.74,426.81z M197.97,525.59c0.31,42.64,34,78.7,78.84,78.74
			c44.22,0.04,78.74-35.81,78.79-78.78c0.05-43.24-35.46-78.75-78.82-78.75C233.5,446.79,197.97,482.32,197.97,525.59z"/>
		<path d="M691.69,477.94c-34.44,0.42-62.32-27.72-63.35-60.96c-1.15-37.23,28.24-64.54,60.45-65.82
			c37.21-1.49,66.46,26.8,66.65,63.16C755.64,451.38,725.56,478.61,691.69,477.94z M737.12,414.85c0-25.74-19.72-45.58-45.34-45.63
			c-25.38-0.05-45.44,20.14-45.37,45.65c0.07,24.88,20.16,45.01,44.99,45.08C717.3,460.02,737.12,440.46,737.12,414.85z"/>
		<path d="M399.32,727.66c1.7-15.32-2.19-31.42-12.11-45.89c-11.36-16.56-26.84-28.07-44.95-36.43c-3.34-1.54-6.78-4.33-8.52-7.47
			c-1.84-3.32-0.7-7.45,2.56-10.34c3.39-2.99,7.16-3.22,11.12-1.51c17.68,7.65,33.31,18.17,46.47,32.38
			c17.62,19.02,25.93,41.51,25.88,67.27c-0.01,6.49,0.14,12.99-0.06,19.48c-0.16,5.47-3.43,10.33-7.48,11.23
			c-4.2,0.93-8.14,0-10.5-3.79c-1.32-2.12-2.14-4.83-2.31-7.33C399.08,740.13,399.32,734.95,399.32,727.66z"/>
		<path d="M134.27,729.44c-1.2-17.14,1.82-34.1,10.26-49.81c6.15-11.45,14.23-21.44,24.13-30.01c11.35-9.83,23.71-17.94,37.65-23.54
			c5.69-2.29,11.09-0.28,13.4,4.78c2.33,5.1,0.37,10.45-5.45,13.03c-14.15,6.27-26.96,14.37-37.77,25.59
			c-14.53,15.08-22.89,32.62-22.54,53.9c0.13,7.66,0.1,15.33-0.01,22.99c-0.1,6.35-3.8,10.12-9.69,10.22
			c-5.73,0.1-9.69-3.74-9.93-10.07C134.11,741.04,134.27,735.54,134.27,729.44z"/>
		<path d="M601.33,539.9c-0.45-12.71,1.97-24.67,8.85-35.59c9.22-14.64,22.07-24.8,38.01-31.16c4.59-1.83,9.49,0.34,11.53,4.75
			c1.97,4.25,0,9.09-4.41,11.73c-6.36,3.81-12.95,7.36-18.79,11.87c-10.91,8.44-16.93,19.66-16.77,33.78
			c0.05,4.66,0.06,9.32-0.01,13.98c-0.08,5.49-3.54,9.34-8.54,9.62c-5.3,0.29-9.46-3.39-9.84-8.99
			C601.15,546.57,601.34,543.23,601.33,539.9z"/>
		<path d="M782.01,538.58c0,3.78,0.16,7.45-0.04,11.1c-0.33,6.08-3.39,9.15-8.79,9.2c-5.61,0.05-8.86-3.19-9.14-9.45
			c-0.3-6.63-0.06-13.3-0.63-19.9c-1.16-13.57-9.18-23.13-19.51-30.88c-4.7-3.52-10.14-6.07-15.32-8.93
			c-3.71-2.05-5.75-4.94-5.23-9.27c0.52-4.31,3.17-6.88,7.23-7.81c1.47-0.34,3.31-0.1,4.73,0.49c17.11,7.1,31.27,17.75,40.19,34.39
			C780.71,517.22,782.76,527.7,782.01,538.58z"/>
		<path d="M220.77,733.27c0,3.83,0.03,7.66-0.01,11.49c-0.06,6.69-3.96,11.54-9.48,11.83c-5.84,0.31-10.51-3.76-10.84-10.47
			c-0.41-8.47-0.37-17-0.02-25.47c0.26-6.27,5.1-10.7,10.49-10.49c5.56,0.21,9.76,5.14,9.84,11.62
			C220.81,725.61,220.77,729.44,220.77,733.27z"/>
		<path d="M333.15,733.18c0-4.49-0.15-9,0.04-13.48c0.23-5.37,4.39-9.39,9.53-9.54c5.02-0.15,9.77,3.69,9.99,8.96
			c0.37,8.97,0.49,17.98,0.12,26.95c-0.27,6.5-5.26,11.23-10.61,10.45c-6.68-0.98-9.36-4.65-9.12-11.34
			c0.14-3.99,0.03-7.99,0.03-11.99C333.13,733.18,333.14,733.18,333.15,733.18z"/>
		<path d="M723.32,541.69c0-2.33-0.02-4.66,0-7c0.07-5.88,2.75-9.3,7.66-9.81c5.3-0.55,9.91,2.21,10.37,7.62
			c0.56,6.54,0.3,13.27-0.56,19.79c-0.65,4.91-4.98,7.12-10.08,6.47c-4.04-0.51-7.13-4.1-7.39-8.58c-0.01-0.17,0-0.33,0-0.5
			C723.32,547.02,723.32,544.36,723.32,541.69z"/>
		<path d="M660.97,541.01c-0.34,3.76-0.37,7.42-1.06,10.95c-0.95,4.88-4.51,7.25-9.41,6.84c-4.6-0.38-8-3.68-8.14-8.34
			c-0.16-5.65-0.15-11.31-0.01-16.96c0.13-4.89,3.32-8.29,7.78-8.67c5.06-0.43,8.63,1.93,9.79,6.99
			C660.63,534.85,660.65,538.02,660.97,541.01z"/>
	</g>
	<g>
		<path class="st0" d="M338.13,697.71h11c11-26.4,7-65,7-65l-9-5C347.13,627.71,351.53,676.59,338.13,697.71z"/>
		<path class="st1" d="M345.13,685.93c-12.03,0-21.78,9.75-21.78,21.78s9.75,21.78,21.78,21.78s21.78-9.75,21.78-21.78
			S357.16,685.93,345.13,685.93z M345.13,722.71c-8.28,0-15-6.72-15-15s6.72-15,15-15s15,6.72,15,15S353.41,722.71,345.13,722.71z"
			/>
		<path class="st2" d="M345.13,692.71c-8.28,0-15,6.72-15,15s6.72,15,15,15s15-6.72,15-15S353.41,692.71,345.13,692.71z
			 M345.13,716.71c-4.97,0-9-4.03-9-9s4.03-9,9-9s9,4.03,9,9S350.1,716.71,345.13,716.71z"/>
		<circle class="st1" cx="345.13" cy="707.71" r="9"/>
		<polygon class="st0" points="194.4,633.42 203.91,629.67 213.42,711.05 202.68,712.18 		"/>
		<path class="st0" d="M212.13,710.27c-22.57,0-40.86,19.64-40.86,43.88c0,16.65,8.64,31.14,21.37,38.57
			c2.08,1.22,4.7-0.28,4.71-2.69l0-0.05c0-1.75-0.53-3.38-1.45-4.73c-0.69-1.02-0.4-2.44,0.72-2.97c0.01-0.01,0.03-0.01,0.04-0.02
			c0.76-0.35,0.8-1.39,0.11-1.86c-8.12-5.48-13.53-15.19-13.53-26.25c0-17.12,12.93-35.44,28.87-35.44S241,737.02,241,754.14
			c0,11.07-5.4,20.77-13.53,26.26c-0.69,0.47-0.64,1.51,0.11,1.86l0.04,0.02c1.13,0.53,1.52,1.83,0.8,2.85
			c-0.96,1.37-1.53,3.04-1.53,4.85l0,0.05c0.01,2.41,2.63,3.9,4.71,2.69c12.73-7.43,21.37-21.92,21.37-38.57
			C252.99,729.91,234.69,710.27,212.13,710.27z"/>
		<path class="st3" d="M226.9,787.54c0-1.75,0.53-3.38,1.45-4.73c0.69-1.02,0.41-2.43-0.7-2.96c-1.6-0.76-3.47-1.03-5.44-0.62
			c-3.27,0.68-5.88,3.34-6.51,6.61c-1.05,5.44,3.09,10.2,8.34,10.2c1.29,0,2.5-0.29,3.59-0.8c1.12-0.53,1.41-1.94,0.72-2.97
			C227.44,790.92,226.9,789.29,226.9,787.54z"/>
		<path class="st3" d="M197.35,787.54c0-1.75-0.53-3.38-1.45-4.73c-0.69-1.02-0.41-2.43,0.7-2.96c1.6-0.76,3.47-1.03,5.44-0.62
			c3.27,0.68,5.88,3.34,6.51,6.61c1.05,5.44-3.09,10.2-8.34,10.2c-1.29,0-2.5-0.29-3.59-0.8c-1.12-0.53-1.41-1.94-0.72-2.97
			C196.82,790.92,197.35,789.29,197.35,787.54z"/>
		<path class="st3" d="M212.13,710.27c-5.23,0-10.23,1.07-14.83,2.99c1.64,3.49,2.93,6.23,3.95,8.38c3.36-1.86,7.03-2.94,10.88-2.94
			c2.12,0,4.19,0.33,6.18,0.94l0.51-8.78C216.64,710.48,214.41,710.27,212.13,710.27z"/>
	</g>
	<g>
		<path d="M841.05,707.87c-30.1,29.95-60.18,59.92-90.35,89.8c-1.79,1.78-4.26,2.88-6.6,4.42c-0.94-3.34-0.89-7.21-2.65-8.4
			c-2.01-1.35-5.63-0.31-9.22-0.31c0-1.6-0.08-3.35,0.02-5.08c0.34-6.1-0.79-7.38-6.7-6.06c-3.93,0.88-5.29-0.46-4.25-3.89
			c1.58-5.18,0.02-7.23-5.32-6.79c-0.87,0.07-1.8-0.66-3.47-1.33c2.62-3.44,4.7-6.87,7.44-9.65c27.88-28.19,55.89-56.27,83.83-84.4
			c2.99-3.01,5.81-3.4,8.96-0.17c9.4,9.66,18.87,19.24,28.32,28.85C841.05,705.87,841.05,706.87,841.05,707.87z"/>
		<path d="M631.05,859.87c-3.95-2.65-8.38-4.8-11.69-8.1c-2.49-2.48-3.55-6.41-5.83-10.84c52.13,0,102.65,0,153.79,0
			c0-10.39,0.15-20.17-0.07-29.94c-0.09-3.96,0.92-6.95,3.94-9.66c4.77-4.28,9.19-8.96,14.73-14.43c0,3.34,0,5.42,0,7.5
			c0.02,12.83-0.41,25.68,0.19,38.49c0.63,13.31-4.17,22.53-17.05,26.97C723.05,859.87,677.05,859.87,631.05,859.87z"/>
		<path d="M770.05,640.87c13.42,6.26,16.88,12.19,15.92,27.49c-0.07,1.09-0.28,2.46-0.97,3.17c-5.51,5.69-11.15,11.25-17.71,17.81
			c0-10.88,0-20.41,0-30.34c-51,0-101.42,0-152.43,0c1.05-9.95,7.27-14.74,15.19-18.13C676.71,640.87,723.38,640.87,770.05,640.87z"
			/>
		<path d="M591.05,682.87c1.8-1.3,3.41-3.15,5.42-3.8c8.16-2.64,16.5-4.74,24.66-7.39c3.48-1.13,5.64,0.03,6.75,2.94
			c1.2,3.13-0.78,4.98-3.65,5.92c-4.37,1.44-8.75,2.84-13.42,4.35c0.6,1.74,1.26,3.05,1.5,4.43c0.56,3.23-2.55,6.49-5.32,5.09
			c-5.52-2.78-10.65-6.32-15.94-9.55C591.05,684.21,591.05,683.54,591.05,682.87z"/>
		<path d="M591.05,765.87c4.42-2.02,8.73-4.36,13.3-5.97c5.61-1.98,11.41-3.45,17.18-4.95c2.82-0.74,5.52-0.18,6.44,3.02
			c0.91,3.16-0.85,4.98-3.8,5.92c-4.39,1.39-8.76,2.85-13.43,4.38c0.56,1.57,1.22,2.88,1.47,4.26c0.6,3.28-2.49,6.55-5.33,5.1
			c-5.51-2.81-10.58-6.46-15.83-9.77C591.05,767.21,591.05,766.54,591.05,765.87z"/>
		<path d="M591.05,793.87c1.39-1.11,2.62-2.73,4.2-3.23c8.97-2.82,17.97-5.59,27.09-7.82c1.54-0.38,4.67,1.61,5.36,3.23
			c0.5,1.18-1.37,4.51-2.94,5.22c-4.45,2-9.29,3.14-14.08,4.66c0.61,1.93,1.42,3.43,1.5,4.97c0.17,3.22-2,5.82-4.77,4.56
			c-5.72-2.6-10.94-6.32-16.36-9.58C591.05,795.21,591.05,794.54,591.05,793.87z"/>
		<path d="M591.05,737.87c2.42-1.3,4.71-3.01,7.28-3.84c7.56-2.44,15.22-4.56,22.86-6.77c3.08-0.89,5.8-0.49,6.78,3.03
			c0.91,3.26-1.04,4.92-3.95,5.82c-4.38,1.35-8.74,2.76-13.35,4.23c0.6,1.56,1.12,2.58,1.39,3.67c1.02,4.24-2.04,7.28-5.98,5.44
			c-5.21-2.44-10.04-5.68-15.03-8.57C591.05,739.87,591.05,738.87,591.05,737.87z"/>
		<path d="M591.05,710.87c1.78-1.31,3.38-3.17,5.38-3.83c8.3-2.74,16.74-5.04,25.08-7.66c3.21-1.01,5.33,0.21,6.33,2.99
			c1.13,3.12-0.69,4.98-3.62,5.93c-4.36,1.41-8.7,2.86-13.23,4.35c0.45,1.87,1.08,3.41,1.13,4.96c0.12,3.46-2.79,5.77-5.85,4.21
			c-5.24-2.66-10.17-5.94-15.23-8.95C591.05,712.21,591.05,711.54,591.05,710.87z"/>
		<path d="M591.05,821.87c1.95-1.4,3.71-3.38,5.89-4.09c8.16-2.66,16.48-4.86,24.71-7.34c3.18-0.96,5.33,0.15,6.28,3.07
			c0.97,2.98-0.87,4.65-3.56,5.53c-4.66,1.54-9.32,3.08-13.05,4.31c0,3.1,0.87,7.21-0.18,7.79c-2.12,1.16-5.68,1.24-7.95,0.22
			c-4.3-1.92-8.11-4.93-12.12-7.49C591.05,823.21,591.05,822.54,591.05,821.87z"/>
		<path d="M693.37,819.46c3.36-8.43,6.72-16.85,10.13-25.4c5.49,5.85,10.52,11.2,16.13,17.17c-7.68,3.01-16.19,6.34-24.69,9.67
			C694.41,820.42,693.89,819.94,693.37,819.46z"/>
	</g>
</g>
</svg>
